<?xml version="1.0" encoding="iso-8859-1"?>
<!-- Generator: Adobe Illustrator 19.2.1, SVG Export Plug-In . SVG Version: 6.00 Build 0)  -->
<!DOCTYPE svg PUBLIC "-//W3C//DTD SVG 1.1//EN" "http://www.w3.org/Graphics/SVG/1.1/DTD/svg11.dtd">
<svg version="1.1" xmlns="http://www.w3.org/2000/svg" xmlns:xlink="http://www.w3.org/1999/xlink" x="0px" y="0px"
	 viewBox="0 0 829.793 828.67" style="enable-background:new 0 0 829.793 828.67;" xml:space="preserve">
<g id="Goal">
	<g>
		<g>
			<g>
				<g>
					<path style="fill:#ACBF65;" d="M826.645,455.485c-0.19,2-0.4,3.99-0.62,5.98c-2.06,18.2-5.3,36.05-9.66,53.46
						c-0.48,1.95-0.97,3.89-1.49,5.83c-9.87,37.24-24.81,72.45-44.05,104.83c-5.53,9.33-11.43,18.43-17.67,27.27
						c0,0.01-0.01,0.01-0.01,0.02c-3.89,5.52-7.91,10.93-12.07,16.24c-25.38,32.53-55.53,61.17-89.4,84.89
						c-1.64,1.15-3.3,2.29-4.96,3.41c-23.99,16.29-49.79,30.12-77.04,41.14c-1.86,0.76-3.72,1.5-5.59,2.21
						c-4.9,1.91-9.86,3.73-14.86,5.44c-5.59,1.93-11.22,3.74-16.92,5.42h-0.01c-11.19,3.32-22.58,6.18-34.14,8.55
						c-1.99,0.41-3.98,0.81-5.98,1.18c-1.82,0.35-3.65,0.68-5.48,1c-16.8,2.97-33.94,4.92-51.38,5.79
						c-2.28,0.11-4.55,0.21-6.84,0.28h-0.01c-0.29,0.01-0.59,0.02-0.88,0.03c-2.64,0.08-5.28,0.14-7.93,0.18
						c-157.91,2.03-296.31-84.55-367.89-213.61c-11.01-19.84-20.44-40.7-28.11-62.39c-14.74-41.63-23.02-86.36-23.62-132.98
						c-2.95-228.81,180.16-416.68,408.97-419.62c158.68-2.05,297.65,85.39,368.93,215.48c5.33,9.72,10.28,19.67,14.83,29.85
						c5.67,12.7,10.73,25.74,15.13,39.09c0.39,1.18,0.77,2.36,1.14,3.54c1.74,5.43,3.37,10.91,4.89,16.44v0.01
						c2.23,8.13,4.22,16.36,5.95,24.68c0.6,2.84,1.17,5.7,1.7,8.57c2.52,13.47,4.38,27.17,5.56,41.07c0.3,3.54,0.56,7.09,0.78,10.65
						l0.32,6.09c0.2,4.48,0.33,8.98,0.39,13.5C828.825,424.705,828.155,440.215,826.645,455.485z"/>
				</g>
			</g>
		</g>
		<g>
			<circle style="fill:#FFFFFF;" cx="301.077" cy="282.526" r="172.738"/>
			<path style="fill:#FFFFFF;" d="M128.335,282.524c0,95.405,77.343,172.74,172.74,172.74c51.612,0,97.931-22.634,129.584-58.51
				c19.926-22.584,34.038-50.419,40.001-81.169v-0.008c2.07-10.7,3.155-21.748,3.155-33.052c0-20.216-3.478-39.628-9.855-57.657
				c-8.505-24.017-22.17-45.591-39.653-63.388c-31.346-31.901-74.974-51.686-123.232-51.686c-14.162,0-27.918,1.706-41.094,4.919
				c-15.876,3.867-30.891,9.938-44.705,17.864c-19.296,11.064-36.257,25.748-49.955,43.123
				c-19.503,24.746-32.382,54.957-35.959,87.96C128.683,269.853,128.335,276.147,128.335,282.524z"/>
			<polygon style="fill:#1D1D1B;" points="241.038,312.934 162.511,312.65 162.511,373.152 225.429,421.005 280.788,381.254 			"/>
			<polygon style="fill:#1D1D1B;" points="312.298,157.516 251.644,208.424 281.317,281.84 360.31,276.306 379.457,199.47 			"/>
			<path style="fill:#1D1D1B;" d="M129.362,263.658l40.465-2.841l17.748-71.223l-22.253-13.897
				C145.818,200.444,132.94,230.655,129.362,263.658z"/>
			<path style="fill:#1D1D1B;" d="M403.768,381.258l26.891,15.495c19.926-22.584,34.038-50.419,40.001-81.169v-0.008l-5.69-20.994
				l-50.021,8.414L403.768,381.258z"/>
			<path style="fill:#1D1D1B;" d="M215.276,132.575l25.665,8.34l19.04-26.203C244.105,118.579,229.09,124.649,215.276,132.575z"/>
			<path style="fill:#1D1D1B;" d="M424.307,161.478v50.502l39.653,12.886C455.454,200.85,441.789,179.276,424.307,161.478z"/>
		</g>
		<path style="fill:#FDFBFD;" d="M516.035,525.595l254.79,99.99c-5.53,9.33-11.43,18.43-17.67,27.27c0,0.01-0.01,0.01-0.01,0.02
			c-3.89,5.52-7.91,10.93-12.07,16.24l-255.74-103.43l1.36,256.67c-16.8,2.97-33.94,4.92-51.38,5.79c-2.28,0.11-4.55,0.21-6.84,0.28
			h-0.01c-0.29,0.01-0.59,0.02-0.88,0.03l9.63-295.43c90.57-114.32,307.57-290.8,340.72-317.51c5.33,9.72,10.28,19.67,14.83,29.85
			c5.67,12.7,10.73,25.74,15.13,39.09c0.39,1.18,0.77,2.36,1.14,3.54L516.035,525.595z"/>
		<g>
			<g>
				
					<rect x="313.192" y="116.851" transform="matrix(0.7834 -0.6216 0.6216 0.7834 -147.5075 271.8126)" style="fill:#FDFBFD;" width="6.001" height="461.343"/>
			</g>
			<g>
				
					<rect x="341.528" y="113.233" transform="matrix(0.3434 -0.9392 0.9392 0.3434 -95.2978 548.3493)" style="fill:#FDFBFD;" width="6" height="458.196"/>
			</g>
			<g>
				
					<rect x="376.747" y="86.496" transform="matrix(0.8874 -0.461 0.461 0.8874 -98.6277 209.6225)" style="fill:#FDFBFD;" width="6" height="440.379"/>
			</g>
			<g>
				<path style="fill:#FDFBFD;" d="M474.985,761.265l23.17,58.91c-1.99,0.41-3.98,0.81-5.98,1.18l-22.26-56.57l-2.25-5.74
					l-26.26-66.75l-38.2-70.61l-3.25-6l-45.69-84.46l-3.25-6l-38.13-70.48l-3.17-5.86l-45.49-84.08l-3.18-5.87l-29.63-54.77
					l-4.3-7.96l-64.43-119.08l5.27-2.86l67.66,125.05l4.3,7.96l27.79,51.36l3.18,5.87l45.48,84.07l3.17,5.86l38.3,70.79l3.25,6
					l45.7,84.46l3.24,6l36.83,68.07l0.07,0.17l25.81,65.61L474.985,761.265z"/>
			</g>
			<g>
				<path style="fill:#FDFBFD;" d="M569.675,798.555c-1.86,0.76-3.72,1.5-5.59,2.21l-2.02-4.41l-2.56-5.59l-30.66-66.86l-2.54-5.54
					l-36.04-78.59l-2.51-5.48l-36.75-80.14l5.45-2.5l36.51,79.62l2.51,5.48l35.83,78.14l2.54,5.54l30.54,66.59l2.56,5.59
					L569.675,798.555z"/>
			</g>
			<g>
				<path style="fill:#FDFBFD;" d="M651.675,754.005c-1.64,1.15-3.3,2.29-4.96,3.41l-10.4-18l-3.03-5.24l-34.11-59.06l-3.01-5.21
					l-39.58-68.54l-3-5.19l-19.43-33.65l5.2-3l19.43,33.64l3,5.19l39.33,68.11l3.01,5.22l33.97,58.81l3.02,5.24L651.675,754.005z"/>
			</g>
			<g>
				
					<rect x="432.222" y="615.688" transform="matrix(0.8654 -0.5011 0.5011 0.8654 -239.9418 344.2243)" style="fill:#FDFBFD;" width="176.943" height="6"/>
			</g>
			<g>
				
					<rect x="419.048" y="695.856" transform="matrix(0.8216 -0.57 0.57 0.8216 -298.5252 443.6754)" style="fill:#FDFBFD;" width="281.29" height="6"/>
			</g>
			<g>
				<path style="fill:#FDFBFD;" d="M751.075,651.405l-109.96,84.33l-4.8,3.68l-69.37,53.2l-4.88,3.74l-12.84,9.85
					c-5.59,1.93-11.22,3.74-16.92,5.42l27.2-20.86l4.88-3.74l68.9-52.85l4.81-3.68l109.33-83.85L751.075,651.405z"/>
			</g>
			<g>
				
					<rect x="510.24" y="419.775" transform="matrix(0.6102 -0.7923 0.7923 0.6102 -67.0362 709.3115)" style="fill:#FDFBFD;" width="354.027" height="6"/>
			</g>
			<g>
				
					<rect x="576.695" y="458.524" transform="matrix(0.532 -0.8468 0.8468 0.532 -44.3355 842.8374)" style="fill:#FDFBFD;" width="327.116" height="5.999"/>
			</g>
			<g>
				<path style="fill:#FDFBFD;" d="M816.365,514.925c-0.48,1.95-0.97,3.89-1.49,5.83l-96.69-18.46l-6.32-1.21l-70.72-13.5
					l-6.61-1.27l-114.4-21.84l1.12-5.9l117.38,22.41l6.61,1.27l70.04,13.37l6.33,1.21L816.365,514.925z"/>
			</g>
			<g>
				<path style="fill:#FDFBFD;" d="M826.645,455.485c-0.19,2-0.4,3.99-0.62,5.98l-75.3-10.98l-6.49-0.94l-66.36-9.67l-6.81-1
					l-102.24-14.9l0.86-5.94l105.58,15.39l6.81,0.99l65.65,9.57l6.49,0.95L826.645,455.485z"/>
			</g>
			<g>
				<polygon style="fill:#FDFBFD;" points="827.915,389.415 792.005,384.775 785.455,383.935 726.795,376.355 719.895,375.465 
					630.075,363.855 629.305,369.805 715.665,380.965 722.555,381.855 781.935,389.525 788.485,390.375 828.235,395.505 				"/>
			</g>
			<g>
				<path style="fill:#FDFBFD;" d="M435.315,828.145c-2.28,0.11-4.55,0.21-6.84,0.28h-0.01l-125.37-205.99l-55.06-90.46
					l-43.46-71.41l-44.63-73.33l5.13-3.12l42.33,69.56l3.56,5.84l39.99,65.71l3.65,6l51.41,84.46l3.65,6L435.315,828.145z"/>
			</g>
			<g>
				
					<rect x="555.942" y="-46.095" transform="matrix(0.32 -0.9474 0.9474 0.32 201.4151 657.7542)" style="fill:#FDFBFD;" width="6" height="469.307"/>
			</g>
			<g>
				
					<rect x="435.759" y="-14.6" transform="matrix(0.3744 -0.9273 0.9273 0.3744 57.549 553.2344)" style="fill:#FDFBFD;" width="6" height="497.139"/>
			</g>
			<g>
				<rect x="249.269" y="525.225" style="fill:#FDFBFD;" width="225.026" height="6"/>
			</g>
			<g>
				<rect x="304.328" y="615.688" style="fill:#FDFBFD;" width="155.239" height="6"/>
			</g>
			<g>
				
					<rect x="205.589" y="446.01" transform="matrix(0.9989 -0.0469 0.0469 0.9989 -20.64 17.8972)" style="fill:#FDFBFD;" width="331.347" height="6"/>
			</g>
			<g>
				<rect x="533.754" y="180.441" style="fill:#FDFBFD;" width="6" height="260.823"/>
			</g>
			<g>
				
					<rect x="150.05" y="353.247" transform="matrix(0.999 -0.0439 0.0439 0.999 -15.2788 17.4825)" style="fill:#FDFBFD;" width="479.877" height="6"/>
			</g>
		</g>
	</g>
</g>
<g id="Livello_1">
</g>
</svg>
